PathFileType	4	(X/Y/Z)	C:/Users/CLatella/Desktop/xsens/test 26Settembre2016/Meri-002.trc	
DataRate	CameraRate	NumFrames	NumMarkers	Units	OrigDataRate	OrigDataStartFrame	OrigNumFrames	
240.00	240.00	4	64	mm	240.00	133	1060	
Frame#	Time	pHipOrigin			pRightASI			pLeftASI			pRightCSI			pLeftCSI			pRightIschialTub			pLeftIschialTub			pSacrum			pL5SpinalProcess			pL3SpinalProcess			pT12SpinalProcess			pPX			pIJ			pT4SpinalProcess			pT8SpinalProcess			pC7SpinalProcess			pTopOfHead			pRightAuricularis			pLeftAuricularis			pBackOfHead			pRightAcromion			pLeftAcromion			pRightArmLatEpicondyle			pRightArmMedEpicondyle			pLeftArmLatEpicondyle			pLeftArmMedEpicondyle			pRightUlnarStyloid			pRightRadialStyloid			pRightOlecranon			pLeftUlnarStyloid			pLeftRadialStyloid			pLeftOlecranon			pRightTopOfHand			pRightPinky			pRightBallHand			pLeftTopOfHand			pLeftPinky			pLeftBallHand			pRightGreaterTrochanter			pRightKneeLatEpicondyle			pRightKneeMedEpicondyle			pRightPatella			pLeftGreaterTrochanter			pLeftKneeLatEpicondyle			pLeftKneeMedEpicondyle			pLeftPatella			pRightLatMalleolus			pRightMedMalleolus			pRightTibialTub			pLeftLatMalleolus			pLeftMedMalleolus			pLeftTibialTub			pRightHeelFoot			pRightFirstMetatarsal			pRightFifthMetatarsal			pRightPivotFoot			pRightHeelCenter			pRightToe			pLeftHeelFoot			pLeftFirstMetatarsal			pLeftFifthMetatarsal			pLeftPivotFoot			pLeftHeelCenter			pLeftToe			
		X1	Y1	Z1	X2	Y2	Z2	X3	Y3	Z3	X4	Y4	Z4	X5	Y5	Z5	X6	Y6	Z6	X7	Y7	Z7	X8	Y8	Z8	X9	Y9	Z9	X10	Y10	Z10	X11	Y11	Z11	X12	Y12	Z12	X13	Y13	Z13	X14	Y14	Z14	X15	Y15	Z15	X16	Y16	Z16	X17	Y17	Z17	X18	Y18	Z18	X19	Y19	Z19	X20	Y20	Z20	X21	Y21	Z21	X22	Y22	Z22	X23	Y23	Z23	X24	Y24	Z24	X25	Y25	Z25	X26	Y26	Z26	X27	Y27	Z27	X28	Y28	Z28	X29	Y29	Z29	X30	Y30	Z30	X31	Y31	Z31	X32	Y32	Z32	X33	Y33	Z33	X34	Y34	Z34	X35	Y35	Z35	X36	Y36	Z36	X37	Y37	Z37	X38	Y38	Z38	X39	Y39	Z39	X40	Y40	Z40	X41	Y41	Z41	X42	Y42	Z42	X43	Y43	Z43	X44	Y44	Z44	X45	Y45	Z45	X46	Y46	Z46	X47	Y47	Z47	X48	Y48	Z48	X49	Y49	Z49	X50	Y50	Z50	X51	Y51	Z51	X52	Y52	Z52	X53	Y53	Z53	X54	Y54	Z54	X55	Y55	Z55	X56	Y56	Z56	X57	Y57	Z57	X58	Y58	Z58	X59	Y59	Z59	X60	Y60	Z60	X61	Y61	Z61	X62	Y62	Z62	X63	Y63	Z63	X64	Y64	Z64	

133	0.550	170.78726	5.89266	926.64574	237.80378	-108.76452	1006.39640	215.13202	129.73839	1008.49379	193.40908	-92.68455	1074.06211	174.73235	104.41993	1075.80994	128.39007	-47.34103	873.61180	119.05171	51.18624	874.46074	101.02416	-0.84894	942.37615	129.08920	2.19726	1016.83340	120.54984	1.04869	1120.50426	115.65594	0.34956	1212.09018	252.33568	1.44820	1301.32902	247.34190	0.34956	1411.94124	113.70836	-1.04869	1384.72514	114.00799	-0.24969	1303.57622	113.65842	-0.49938	1436.76032	290.18853	-4.99378	1623.62756	215.58146	-67.66571	1559.60730	225.41921	62.32237	1553.91439	176.03073	1.74782	1581.92950	154.85710	-175.43148	1398.05853	142.82210	174.83222	1398.20835	290.73785	-125.74337	1111.51546	280.65041	-66.06770	1119.05607	272.66037	147.26656	1103.22579	262.67281	87.14145	1105.72268	370.03907	-78.25253	901.32728	410.98806	-66.86671	921.60202	265.26957	-103.97049	1105.47299	338.72807	109.31384	885.29724	377.42986	88.09027	901.82666	248.44053	130.18783	1096.78381	528.24200	-86.84183	809.84124	446.94327	-83.59587	823.12469	405.44496	-67.31615	876.30844	487.44283	182.97208	818.13091	408.19154	161.34902	825.07226	372.03658	114.45743	861.17729	191.71120	-141.87328	900.57821	176.58005	-134.68224	519.80252	163.54628	-62.22249	515.95731	210.23812	-88.68953	519.15333	112.80948	134.48248	903.72429	104.12030	125.14412	522.79878	157.20418	74.35738	517.15581	161.04939	127.79082	521.30065	141.27402	-158.60244	95.83063	143.72098	-95.98044	90.83685	234.00851	-100.02541	480.20184	81.39861	178.87718	102.12279	88.68953	116.90438	94.58219	192.70995	114.30761	480.55141	103.77074	-122.49741	-0.04994	251.33693	-113.60849	0.74907	240.60030	-179.47644	1.74782	264.82013	-148.71476	1.44820	142.82210	-128.78958	4.54434	340.67564	-161.04939	1.24844	44.04514	147.31650	5.74285	189.36412	120.44996	3.69540	186.81729	187.11692	4.39453	207.04210	153.60866	3.84521	83.64581	148.81463	9.58806	283.84643	156.60493	1.94757 
134	0.554	170.68739	5.89266	926.69568	237.75385	-108.71458	1006.39640	215.13202	129.73839	1008.49379	193.40908	-92.68455	1074.06211	174.68241	104.41993	1075.80994	128.29020	-47.34103	873.61180	118.95183	51.18624	874.46074	100.97422	-0.79900	942.42608	129.03926	2.19726	1016.83340	120.54984	1.04869	1120.50426	115.70587	0.34956	1212.14012	252.43556	1.44820	1301.27908	247.54165	0.29963	1411.89130	113.90811	-1.04869	1384.77508	114.10786	-0.24969	1303.62616	113.90811	-0.49938	1436.76032	290.48816	-4.99378	1623.57762	215.83115	-67.71565	1559.60730	225.71884	62.27243	1553.86446	176.33036	1.74782	1581.92950	155.00692	-175.48141	1398.10847	143.02185	174.83222	1398.20835	290.78779	-125.79331	1111.46552	280.70035	-66.06770	1119.00613	272.71030	147.26656	1103.17585	262.72274	87.14145	1105.67274	369.98913	-78.25253	901.22740	410.93812	-66.91665	921.50215	265.31951	-104.02043	1105.47299	338.67813	109.31384	885.24731	377.32999	88.09027	901.72678	248.44053	130.18783	1096.78381	528.14213	-86.89176	809.69142	446.84340	-83.64581	823.02481	405.39503	-67.36609	876.20857	487.34295	182.97208	818.03103	408.09167	161.34902	824.97239	371.93670	114.45743	861.12735	191.61132	-141.82334	900.57821	176.53011	-134.68224	519.80252	163.49634	-62.22249	515.95731	210.18818	-88.68953	519.15333	112.75954	134.53242	903.72429	104.07037	125.19405	522.79878	157.20418	74.40732	517.15581	160.99945	127.84076	521.30065	141.27402	-158.60244	95.83063	143.72098	-95.98044	90.83685	233.95857	-100.02541	480.25178	81.39861	178.87718	102.12279	88.73946	116.90438	94.58219	192.70995	114.35755	480.60135	103.77074	-122.49741	-0.04994	251.33693	-113.50861	0.74907	240.65024	-179.37656	1.74782	264.82013	-148.61488	1.44820	142.82210	-128.78958	4.54434	340.72558	-160.89958	1.24844	44.04514	147.31650	5.79278	189.36412	120.44996	3.69540	186.81729	187.11692	4.39453	207.04210	153.60866	3.84521	83.64581	148.81463	9.58806	283.84643	156.60493	1.94757 
135	0.558	170.63745	5.94260	926.69568	237.70391	-108.71458	1006.34646	215.08209	129.78833	1008.49379	193.40908	-92.63461	1074.06211	174.68241	104.46987	1075.80994	128.24026	-47.29109	873.61180	118.85195	51.23618	874.51068	100.87435	-0.79900	942.42608	129.03926	2.24720	1016.83340	120.54984	1.09863	1120.55420	115.80575	0.34956	1212.19006	252.58537	1.39826	1301.17921	247.74141	0.24969	1411.84136	114.10786	-1.04869	1384.82502	114.25768	-0.24969	1303.67610	114.10786	-0.54932	1436.81026	290.83772	-5.04372	1623.52768	216.13078	-67.76559	1559.60730	226.01846	62.22249	1553.81452	176.62998	1.69789	1581.92950	155.20667	-175.48141	1398.10847	143.27154	174.78229	1398.25828	290.83772	-125.79331	1111.41558	280.75029	-66.11764	1118.95619	272.76024	147.21662	1103.12591	262.72274	87.09152	1105.67274	369.93919	-78.30246	901.17746	410.88818	-66.96658	921.40227	265.36945	-104.02043	1105.42305	338.62819	109.31384	885.14743	377.32999	88.09027	901.62690	248.49047	130.13790	1096.73387	528.04225	-86.99164	809.54161	446.74352	-83.74568	822.92494	405.34509	-67.41602	876.10869	487.29301	183.02202	817.88122	408.04173	161.39896	824.87251	371.88677	114.45743	861.02748	191.56138	-141.82334	900.57821	176.48017	-134.68224	519.80252	163.44641	-62.22249	515.95731	210.13824	-88.68953	519.15333	112.70961	134.53242	903.72429	104.02043	125.24399	522.84872	157.15424	74.45725	517.15581	160.94952	127.89070	521.30065	141.27402	-158.60244	95.83063	143.72098	-95.98044	90.83685	233.90864	-100.02541	480.25178	81.39861	178.92712	102.12279	88.73946	116.90438	94.58219	192.66002	114.40749	480.60135	103.82068	-122.54735	-0.09988	251.33693	-113.50861	0.74907	240.65024	-179.37656	1.74782	264.82013	-148.56494	1.44820	142.82210	-128.78958	4.54434	340.72558	-160.79970	1.24844	44.04514	147.36644	5.79278	189.36412	120.44996	3.69540	186.81729	187.16686	4.39453	207.04210	153.65860	3.84521	83.64581	148.81463	9.58806	283.84643	156.60493	1.94757 
136	0.562	170.58751	5.94260	926.69568	237.65397	-108.66464	1006.34646	215.03215	129.78833	1008.49379	193.35915	-92.63461	1074.06211	174.63247	104.46987	1075.80994	128.14038	-47.29109	873.66174	118.80202	51.23618	874.51068	100.82441	-0.74907	942.47602	128.98933	2.24720	1016.88334	120.54984	1.09863	1120.60414	115.85569	0.34956	1212.19006	252.68525	1.34832	1301.12927	247.94116	0.19975	1411.74149	114.30761	-1.09863	1384.87495	114.40749	-0.24969	1303.72604	114.35755	-0.54932	1436.86020	291.13735	-5.09366	1623.47774	216.43041	-67.76559	1559.60730	226.31809	62.22249	1553.76458	176.92961	1.69789	1581.92950	155.35648	-175.53135	1398.10847	143.52123	174.78229	1398.30822	290.83772	-125.84325	1111.36565	280.80023	-66.16758	1118.90625	272.81018	147.21662	1103.07597	262.77268	87.09152	1105.62280	369.88925	-78.35240	901.07759	410.83825	-67.01652	921.30240	265.41938	-104.07037	1105.37311	338.57826	109.31384	885.04756	377.28005	88.09027	901.52703	248.54041	130.13790	1096.68393	527.94238	-87.04158	809.39180	446.69358	-83.79562	822.77512	405.29515	-67.46596	876.00881	487.19314	183.02202	817.73141	407.94185	161.39896	824.77264	371.83683	114.45743	860.92760	191.46151	-141.77340	900.57821	176.43023	-134.68224	519.80252	163.39647	-62.22249	515.95731	210.08831	-88.68953	519.15333	112.60973	134.58236	903.77423	103.97049	125.24399	522.84872	157.10431	74.50719	517.15581	160.89958	127.94063	521.30065	141.27402	-158.60244	95.83063	143.72098	-95.98044	90.83685	233.85870	-100.02541	480.25178	81.39861	178.92712	102.12279	88.73946	116.95432	94.63212	192.61008	114.45743	480.60135	103.82068	-122.54735	-0.09988	251.33693	-113.50861	0.74907	240.70018	-179.37656	1.74782	264.82013	-148.56494	1.44820	142.87203	-128.78958	4.54434	340.72558	-160.79970	1.24844	44.04514	147.36644	5.79278	189.36412	120.49990	3.69540	186.81729	187.16686	4.39453	207.04210	153.65860	3.84521	83.64581	148.86457	9.58806	283.84643	156.60493	1.94757 
